<?xml version="1.0" standalone="no"?><!DOCTYPE svg PUBLIC "-//W3C//DTD SVG 1.1//EN" "http://www.w3.org/Graphics/SVG/1.1/DTD/svg11.dtd"><svg t="1591884037456" class="icon" viewBox="0 0 1024 1024" version="1.1" xmlns="http://www.w3.org/2000/svg" p-id="1129" xmlns:xlink="http://www.w3.org/1999/xlink" width="200" height="200"><defs><style type="text/css"></style></defs><path d="M471.04 925.696v20.48c0 32.768-28.672 61.44-61.44 61.44h-40.96c-32.768 0-61.44-28.672-61.44-61.44v-20.48h163.84z m126.976 0c0 4.096 4.096 8.192 4.096 12.288 12.288 20.48 32.768 28.672 53.248 28.672 12.288 0 20.48-4.096 32.768-8.192l28.672-16.384v8.192c0 32.768-28.672 61.44-61.44 61.44h-40.96c-32.768 0-61.44-28.672-61.44-61.44v-20.48h45.056z m212.992-344.064c8.192-4.096 16.384-4.096 20.48 0l163.84 102.4c4.096 4.096 8.192 8.192 8.192 16.384s-4.096 12.288-8.192 16.384l-118.784 73.728 118.784 73.728c4.096 4.096 8.192 8.192 8.192 16.384s-4.096 12.288-8.192 16.384l-163.84 102.4c-4.096 4.096-8.192 4.096-12.288 4.096-4.096 0-8.192 0-8.192-4.096-8.192-4.096-12.288-12.288-12.288-16.384v-147.456l-131.072 81.92c-8.192 4.096-20.48 4.096-28.672-8.192-4.096-8.192-4.096-20.48 8.192-28.672l151.552-94.208-155.648-90.112c-8.192-4.096-12.288-20.48-8.192-28.672 4.096-8.192 20.48-12.288 28.672-8.192l131.072 81.92v-147.456c4.096-4.096 8.192-12.288 16.384-12.288zM839.68 819.2v131.072l106.496-65.536L839.68 819.2zM225.28 24.576c135.168 0 245.76 102.4 245.76 225.28v634.88H307.2v-450.56c0-45.056-36.864-81.92-81.92-81.92-12.288 0-20.48 8.192-20.48 20.48s8.192 20.48 20.48 20.48c24.576 0 40.96 16.384 40.96 40.96v36.864c-12.288 4.096-28.672 4.096-40.96 4.096-77.824 0-155.648-36.864-200.704-94.208C20.48 376.832 20.48 372.736 20.48 368.64V131.072c0-4.096 0-8.192 4.096-12.288C69.632 61.44 147.456 24.576 225.28 24.576z m573.44 0c77.824 0 155.648 36.864 200.704 94.208 4.096 4.096 4.096 8.192 4.096 12.288V368.64c0 4.096 0 8.192-4.096 12.288-45.056 61.44-122.88 94.208-200.704 94.208-12.288 0-28.672 0-40.96-4.096v-36.864c0-24.576 16.384-40.96 40.96-40.96 12.288 0 20.48-8.192 20.48-20.48s-8.192-20.48-20.48-20.48c-45.056 0-81.92 36.864-81.92 81.92v212.992l-28.672-16.384c-28.672-16.384-65.536-8.192-86.016 20.48s-8.192 65.536 20.48 86.016l94.208 57.344v4.096l-94.208 57.344c-12.288 8.192-20.48 20.48-24.576 32.768H552.96V249.856c0-122.88 110.592-225.28 245.76-225.28z m40.96 610.304v131.072l106.496-65.536-106.496-65.536zM151.552 208.896c-16.384 0-32.768 12.288-32.768 32.768s12.288 32.768 32.768 32.768c20.48-4.096 32.768-16.384 32.768-36.864s-12.288-28.672-32.768-28.672z m720.896 0c-16.384 0-32.768 12.288-32.768 32.768 0 16.384 12.288 32.768 32.768 32.768s32.768-12.288 32.768-32.768c-4.096-20.48-16.384-32.768-32.768-32.768zM294.912 118.784c-12.288-4.096-20.48 0-28.672 12.288-4.096 12.288 0 20.48 12.288 28.672 28.672 12.288 49.152 32.768 61.44 57.344 4.096 8.192 8.192 12.288 16.384 12.288h8.192c12.288-4.096 16.384-16.384 12.288-28.672-16.384-36.864-45.056-65.536-81.92-81.92z m462.848 12.288c-4.096-12.288-16.384-16.384-28.672-12.288-36.864 16.384-65.536 45.056-81.92 77.824-4.096 12.288 0 20.48 8.192 28.672h8.192c8.192 0 16.384-4.096 20.48-12.288 12.288-24.576 32.768-45.056 61.44-57.344 12.288-4.096 16.384-12.288 12.288-24.576z" p-id="1130" fill="#1296db"></path></svg>